<?xml version="1.0" standalone="no"?>
<!DOCTYPE svg PUBLIC "-//W3C//DTD SVG 20010904//EN"
 "http://www.w3.org/TR/2001/REC-SVG-20010904/DTD/svg10.dtd">
<svg version="1.0" xmlns="http://www.w3.org/2000/svg"
 width="1024.000000pt" height="1024.000000pt" viewBox="0 0 1024.000000 1024.000000"
 preserveAspectRatio="xMidYMid meet">

<g transform="translate(0.000000,1024.000000) scale(0.100000,-0.100000)"
fill="#000000" stroke="none">
<path d="M2335 10229 c-1106 -103 -2009 -888 -2264 -1969 -70 -296 -65 -50
-69 -3050 -4 -2865 -4 -2860 43 -3115 185 -999 939 -1789 1935 -2024 296 -70
50 -65 3050 -69 2865 -4 2860 -4 3115 43 999 185 1789 939 2024 1935 70 296
65 50 69 3050 4 2865 4 2860 -43 3115 -185 999 -939 1789 -1935 2024 -297 70
-44 65 -3090 67 -1510 1 -2785 -2 -2835 -7z m3043 -1135 c42 -9 104 -25 137
-36 84 -29 350 -143 540 -231 453 -210 518 -239 538 -240 12 0 66 5 119 11
213 26 317 12 537 -70 l25 -9 -36 -30 c-72 -59 -173 -215 -207 -321 l-12 -36
-202 98 c-193 93 -764 360 -987 460 -144 65 -434 175 -495 188 -148 32 -285
24 -440 -25 -123 -39 -352 -132 -535 -218 -458 -214 -1130 -518 -1135 -513 -1
2 17 64 40 138 24 74 39 136 35 138 -4 2 -131 -56 -282 -128 -150 -73 -289
-138 -308 -146 -28 -11 -85 -14 -265 -12 l-229 3 119 59 c321 158 785 372 886
407 55 20 84 23 209 23 80 0 177 -5 217 -12 84 -16 52 -27 473 171 501 235
658 297 865 340 56 12 321 6 393 -9z m97 -609 c380 -57 790 -191 1244 -405
144 -68 277 -137 336 -175 63 -41 136 -108 131 -122 -3 -8 -2 -12 2 -9 5 3 16
-11 25 -30 15 -31 17 -89 17 -547 -1 -343 -4 -506 -11 -495 -5 9 -44 47 -87
84 -42 38 -76 72 -74 76 1 4 -2 7 -7 6 -5 -2 -37 18 -72 43 -169 122 -397 248
-614 341 -191 82 -502 184 -675 223 -101 23 -102 23 -50 24 79 2 161 71 186
157 37 129 -54 259 -212 299 -214 54 -513 46 -779 -21 -110 -28 -261 -72 -285
-84 -8 -4 -42 -18 -75 -30 -90 -34 -302 -139 -368 -182 -32 -21 -61 -38 -63
-38 -12 0 -185 -128 -249 -184 -90 -79 -128 -123 -137 -155 -3 -14 -5 125 -5
309 l2 335 32 45 c101 145 378 308 729 430 168 59 400 112 539 124 95 8 420
-4 520 -19z m2330 -76 c204 -38 338 -214 322 -423 -16 -210 -189 -366 -407
-366 l-50 0 0 -1104 0 -1103 -39 -26 c-118 -78 -132 -258 -28 -354 95 -87 228
-90 325 -7 78 66 104 147 78 239 -20 67 -73 130 -134 157 l-42 19 2 1030 3
1030 80 27 c120 42 209 106 269 196 l26 39 0 -1300 c0 -1418 3 -1338 -56
-1455 -35 -69 -121 -150 -200 -189 -66 -33 -73 -34 -184 -34 -109 0 -119 2
-183 32 -267 127 -328 477 -118 676 31 29 67 59 80 68 l23 15 2 1036 1 1037
-33 16 c-50 23 -141 114 -167 165 -77 154 -49 347 67 463 56 55 160 107 235
117 32 4 61 8 64 9 3 0 32 -4 64 -10z m-4441 -680 c50 -39 56 -65 56 -237 0
-149 -1 -161 -23 -193 -13 -19 -38 -39 -57 -46 -26 -9 -203 -12 -660 -12 -576
-1 -628 0 -659 17 -66 33 -73 54 -79 216 -6 170 7 224 62 257 30 18 59 19 682
19 645 0 652 0 678 -21z m1746 -529 c251 -27 516 -96 783 -204 104 -43 330
-158 353 -180 8 -9 20 -16 25 -16 5 0 9 -4 9 -9 0 -4 -57 -11 -127 -14 -71 -3
-165 -13 -210 -21 -295 -58 -700 -259 -883 -437 -36 -35 -68 -63 -72 -61 -5 1
-7 -1 -6 -6 1 -4 -17 -35 -39 -70 -98 -148 -52 -288 115 -353 55 -22 74 -23
487 -30 382 -6 440 -9 522 -27 147 -34 202 -51 309 -102 252 -118 411 -273
529 -514 31 -61 67 -156 81 -211 24 -90 27 -118 28 -280 0 -185 -8 -251 -45
-367 -58 -180 -189 -362 -354 -494 -78 -62 -236 -166 -243 -159 -3 2 7 14 22
26 15 12 25 27 22 34 -2 7 2 21 10 32 14 17 14 16 4 -7 -10 -23 -10 -24 4 -6
9 10 13 23 10 27 -3 5 6 21 20 36 27 28 125 219 151 292 8 24 12 48 8 54 -3 5
-2 7 4 4 10 -6 97 271 109 348 3 22 8 48 11 58 12 46 -196 -139 -320 -283 -45
-52 -84 -97 -87 -100 -3 -3 -24 -27 -45 -55 -22 -27 -44 -55 -50 -61 -5 -6
-44 -49 -85 -95 -210 -234 -449 -410 -723 -530 -112 -50 -141 -89 -99 -138 19
-23 123 -54 150 -44 11 4 14 3 7 -4 -32 -31 -323 -128 -550 -183 -307 -75
-661 -110 -763 -76 -58 20 -96 58 -112 114 -6 23 -10 197 -10 451 l0 413 38
-6 c20 -3 129 -9 242 -12 222 -7 311 2 515 51 289 69 602 208 808 360 121 90
141 128 116 218 -17 63 -123 160 -189 175 -56 12 -323 22 -465 17 -93 -3 -258
-2 -365 4 -162 8 -215 15 -312 39 -368 94 -603 316 -729 689 -86 255 -77 607
21 861 116 299 357 558 655 703 116 56 197 86 349 128 60 17 111 32 112 34 5
5 157 -3 254 -13z m-2983 -151 c23 -8 30 -15 26 -29 -9 -34 -27 -41 -61 -24
-24 12 -36 13 -52 4 -31 -16 -21 -32 39 -61 76 -37 98 -83 65 -134 -31 -48
-148 -54 -185 -9 -10 13 -9 19 9 36 20 21 22 21 40 5 23 -21 65 -22 82 -2 17
21 1 39 -49 54 -69 20 -99 80 -65 129 28 40 90 53 151 31z m1222 -7 c48 -24
70 -59 77 -117 10 -90 -45 -157 -129 -157 -65 0 -98 20 -125 72 -67 130 52
266 177 202z m-929 -17 c0 -22 -4 -25 -40 -25 l-40 0 0 -115 0 -115 -30 0 -30
0 0 115 0 115 -45 0 c-41 0 -45 2 -45 25 l0 25 115 0 115 0 0 -25z m100 -74
c0 -77 4 -103 16 -115 21 -22 50 -20 74 4 17 17 20 33 20 115 l0 95 30 0 30 0
0 -94 c0 -52 -5 -107 -10 -121 -23 -60 -102 -90 -158 -61 -54 28 -62 49 -62
168 l0 108 30 0 30 0 0 -99z m400 86 c13 -7 35 -28 48 -47 43 -64 18 -173 -49
-207 -13 -7 -57 -13 -96 -13 l-73 0 0 140 0 140 73 0 c39 0 83 -6 97 -13z
m180 -127 l0 -140 -30 0 -30 0 0 140 0 140 30 0 30 0 0 -140z m291 -340 c12
-7 19 -21 19 -40 0 -19 -7 -33 -19 -40 -13 -7 -256 -10 -720 -10 -623 0 -701
2 -715 16 -21 20 -20 43 1 66 15 17 51 18 715 18 463 0 706 -3 719 -10z
m-1651 -1613 c1 -1562 0 -1529 45 -1616 24 -48 99 -125 153 -159 26 -16 148
-89 272 -162 124 -73 322 -192 440 -263 118 -72 278 -167 355 -212 77 -45 327
-191 555 -325 513 -300 1220 -705 1318 -754 97 -49 169 -66 277 -66 102 0 181
17 270 59 113 53 929 528 1535 893 806 486 1293 782 1360 828 103 70 169 175
189 300 7 43 11 559 11 1520 l1 1455 55 -60 c62 -67 124 -184 151 -285 17 -60
18 -156 18 -1345 l0 -1280 -22 -85 c-34 -127 -93 -238 -172 -318 -56 -57 -110
-93 -354 -237 -158 -93 -316 -188 -350 -210 l-62 -40 -11 -215 c-12 -221 -23
-290 -69 -403 -61 -148 -210 -311 -354 -386 -161 -84 -272 -110 -496 -118
-200 -7 -342 7 -542 53 -84 19 -175 35 -201 36 -58 0 -79 -10 -367 -175 -115
-67 -240 -133 -276 -149 -175 -73 -441 -75 -614 -4 -63 26 -94 42 -365 196
-91 51 -187 104 -215 117 -58 27 -72 26 -265 -17 -232 -52 -264 -55 -505 -54
-198 0 -243 3 -322 22 -236 54 -416 174 -544 363 -96 142 -129 266 -135 514
-3 99 -7 189 -9 200 -6 25 -16 31 -355 228 -341 198 -397 234 -456 300 -62 70
-98 134 -137 247 l-32 95 -3 1287 c-3 1438 -6 1366 67 1513 38 77 138 206 153
198 4 -2 7 -671 8 -1486z m1664 1351 c20 -29 20 -34 -4 -58 -20 -20 -33 -20
-725 -20 l-704 0 -21 22 c-24 26 -24 28 -4 56 l15 22 714 0 714 0 15 -22z
m-89 -258 c38 -15 83 -65 94 -107 6 -22 11 -139 11 -273 0 -207 -3 -240 -19
-275 -29 -63 -60 -85 -132 -95 -88 -13 -1185 -11 -1218 1 -34 13 -69 46 -89
84 -13 25 -16 73 -16 301 l-1 270 27 36 c54 70 24 68 705 68 376 0 622 -4 638
-10z m-1155 -1070 c0 -129 0 -131 -26 -155 -35 -32 -110 -35 -145 -6 l-24 20
22 23 c18 17 25 20 35 10 15 -15 51 -15 66 0 8 8 12 49 12 118 0 59 3 110 7
113 3 4 17 7 30 7 23 0 23 0 23 -130z m229 117 c30 -15 35 -28 18 -51 -12 -17
-15 -17 -49 0 -43 20 -68 13 -68 -20 0 -19 10 -28 54 -46 42 -17 58 -30 71
-55 42 -91 -56 -155 -174 -114 -34 12 -38 25 -17 54 12 16 17 17 44 6 43 -18
86 -11 90 15 2 17 -8 26 -58 47 -66 29 -84 55 -73 107 12 61 97 91 162 57z
m299 -7 c37 -23 72 -88 72 -135 0 -47 -35 -112 -72 -135 -69 -42 -168 -17
-204 52 -23 43 -23 123 0 166 36 69 135 94 204 52z m230 -48 c24 -37 54 -81
67 -97 l24 -30 1 98 0 97 30 0 30 0 0 -155 0 -155 -32 0 c-30 0 -38 8 -100
100 l-67 100 -3 -97 -3 -98 -27 -3 -28 -3 0 155 0 156 33 0 c29 0 36 -8 75
-68z m5412 -622 l0 -280 -450 0 -450 0 0 247 c0 234 1 245 18 231 9 -9 78 -67
153 -129 75 -63 175 -147 222 -186 47 -40 89 -73 94 -73 4 0 26 21 48 47 22
26 108 126 190 221 83 96 154 180 160 188 5 8 11 14 12 14 2 0 3 -126 3 -280z
m-4942 184 c26 -18 29 -56 6 -78 -14 -14 -93 -16 -718 -16 -657 0 -704 1 -718
18 -27 31 -28 39 -7 66 l20 26 698 0 c614 0 699 -2 719 -16z m-530 -256 c14
-14 17 -293 4 -302 -23 -14 -458 -126 -490 -126 -23 0 -51 65 -35 81 7 7 178
55 396 110 l37 10 0 73 0 74 -390 -5 c-352 -5 -392 -4 -415 11 -27 18 -33 54
-13 74 17 17 889 17 906 0z m701 -247 c64 -45 86 -120 54 -180 -72 -137 -265
-87 -265 68 0 60 23 98 77 123 46 21 96 17 134 -11z m-1366 -131 c41 -46 38
-108 -6 -157 -28 -30 -40 -36 -75 -36 -46 0 -66 13 -88 54 -28 55 -10 139 35
164 41 24 100 12 134 -25z m1103 -65 l21 -45 -66 -40 c-36 -22 -151 -91 -256
-153 l-190 -113 -3 -150 -2 -149 -50 0 -50 0 0 146 0 146 -82 43 c-140 72
-353 183 -356 185 -2 2 7 23 19 48 l22 45 206 -105 c113 -57 211 -109 217
-114 8 -6 70 26 186 95 206 123 350 206 358 206 3 0 14 -20 26 -45z m5034 -3
c0 -64 -20 -201 -37 -250 -49 -147 -124 -239 -278 -341 -129 -87 -806 -491
-821 -491 -2 0 3 14 12 31 9 19 18 68 21 123 l6 91 48 2 c53 3 232 66 306 109
118 68 259 193 348 308 37 48 131 208 141 238 3 13 10 28 14 33 11 14 34 135
26 135 -2 0 -31 -46 -64 -102 -148 -250 -398 -421 -719 -492 l-103 -23 0 264
c0 325 3 334 105 383 38 18 67 20 518 20 l477 0 0 -38z m-6180 -280 c0 -75 1
-78 35 -109 31 -29 35 -38 35 -83 0 -70 -36 -111 -106 -117 -43 -5 -54 -2 -82
22 -53 45 -60 133 -13 174 18 16 21 29 21 107 l0 89 55 -3 55 -4 0 -76z m1121
-137 c65 -34 89 -128 49 -193 -32 -52 -113 -77 -161 -51 -17 9 -35 1 -111 -50
-50 -34 -92 -60 -93 -59 -27 41 -45 79 -41 86 3 4 39 33 80 62 70 50 76 57 76
90 0 97 112 161 201 115z m3225 -160 c27 -19 48 -70 39 -92 -5 -10 -8 -21 -7
-25 1 -4 -6 -4 -15 -1 -11 4 -14 3 -9 -5 6 -10 -4 -16 -25 -14 -3 1 -20 -12
-37 -28 -18 -16 -32 -27 -32 -24 0 2 -33 -20 -72 -49 -40 -29 -97 -68 -125
-86 -29 -18 -53 -37 -53 -43 0 -5 -4 -7 -9 -4 -4 3 -57 -24 -117 -59 -60 -36
-123 -70 -141 -76 -18 -6 -33 -14 -33 -19 0 -5 -12 -10 -27 -12 -16 -2 -27 -8
-26 -15 2 -6 -7 -15 -20 -19 -12 -4 -24 -10 -27 -14 -13 -20 -221 -97 -410
-153 -237 -70 -534 -112 -720 -101 l-125 8 140 12 c273 23 490 68 748 155 309
103 593 287 914 592 83 78 96 87 130 87 21 0 48 -7 59 -15z m-3665 -158 c120
-80 70 -260 -72 -260 -106 0 -174 116 -125 211 36 70 131 93 197 49z m3645
-12 c-1 -8 -5 -17 -8 -21 -5 -4 -4 16 1 34 3 9 9 -1 7 -13z m-2313 -632 c-7
-2 -19 -2 -25 0 -7 3 -2 5 12 5 14 0 19 -2 13 -5z m74 -9 c-3 -3 -12 -4 -19
-1 -8 3 -5 6 6 6 11 1 17 -2 13 -5z"/>
<path d="M7667 8214 c-113 -35 -177 -169 -133 -276 19 -44 83 -102 131 -118
53 -18 130 -6 184 27 144 90 111 320 -53 368 -59 18 -67 18 -129 -1z"/>
<path d="M2137 7591 c-14 -16 -25 -42 -73 -168 l-24 -63 29 0 c23 0 31 6 40
30 9 27 14 30 54 30 40 0 46 -3 57 -30 9 -21 19 -30 36 -30 29 0 31 18 5 68
-10 20 -29 67 -42 104 -18 52 -28 67 -46 71 -13 2 -28 -3 -36 -12z m43 -113
c0 -11 -7 -18 -20 -18 -21 0 -24 10 -13 49 6 23 7 23 20 6 7 -11 13 -27 13
-37z"/>
<path d="M2398 7603 c-65 -4 -68 -5 -68 -29 0 -24 2 -24 50 -18 28 4 50 3 50
-1 0 -4 -22 -35 -49 -69 -51 -66 -71 -98 -71 -116 0 -7 34 -10 108 -8 99 3
107 4 107 23 0 18 -8 21 -69 25 -60 4 -67 7 -53 19 9 7 40 44 68 82 53 72 58
101 17 97 -13 -1 -53 -3 -90 -5z"/>
<path d="M2564 7596 c-4 -9 -3 -55 1 -103 6 -74 10 -89 32 -109 20 -19 37 -24
78 -24 43 0 55 4 77 28 24 24 27 35 28 107 1 44 1 85 1 91 -1 7 -12 14 -25 16
-23 5 -24 3 -28 -85 -3 -73 -8 -92 -23 -103 -24 -18 -36 -18 -61 0 -17 13 -19
25 -17 100 2 67 -1 86 -12 86 -7 0 -20 3 -29 6 -10 4 -18 0 -22 -10z"/>
<path d="M3104 7601 c-2 -2 -4 -58 -4 -123 l0 -119 88 3 c82 3 87 4 90 26 3
21 0 22 -57 22 -58 0 -61 1 -61 25 0 23 3 25 50 25 43 0 50 3 50 20 0 17 -7
20 -50 20 -49 0 -50 1 -50 30 0 30 1 30 55 30 30 0 55 5 55 10 0 6 0 13 0 18
0 7 -159 20 -166 13z"/>
<path d="M2850 7480 l0 -120 25 0 c23 0 25 4 25 40 0 54 29 54 67 0 21 -30 35
-40 56 -40 34 0 34 10 1 49 l-26 31 21 26 c27 34 28 95 3 117 -14 13 -38 17
-95 17 l-77 0 0 -120z m130 61 c14 -26 3 -50 -26 -57 -39 -10 -54 2 -54 41 0
33 2 35 35 35 24 0 37 -6 45 -19z"/>
<path d="M3236 6978 c-9 -12 -16 -42 -16 -66 0 -80 75 -121 119 -66 28 36 28
102 1 132 -28 30 -83 30 -104 0z"/>
<path d="M2810 6910 c0 -100 2 -102 68 -79 36 12 57 56 48 101 -9 47 -33 68
-78 68 l-38 0 0 -90z"/>
<path d="M2698 5773 c7 -3 16 -2 19 1 4 3 -2 6 -13 5 -11 0 -14 -3 -6 -6z"/>
<path d="M2738 5773 c7 -3 16 -2 19 1 4 3 -2 6 -13 5 -11 0 -14 -3 -6 -6z"/>
<path d="M2786 5756 c27 -20 10 -32 -18 -12 -29 20 -107 21 -136 0 -12 -8 -29
-28 -37 -44 -17 -33 -20 -116 -4 -125 7 -5 4 -14 -8 -28 -12 -15 -13 -18 -2
-9 9 6 19 8 23 4 4 -4 11 -7 14 -8 4 0 24 -8 46 -17 41 -18 75 -15 115 10 18
12 22 12 15 2 -6 -12 -5 -12 8 -1 26 21 35 135 14 167 -9 14 -14 30 -11 36 8
11 -12 39 -28 39 -6 0 -2 -6 9 -14z m-116 -76 c-8 -5 -19 -10 -25 -10 -5 0 -3
5 5 10 8 5 20 10 25 10 6 0 3 -5 -5 -10z m30 -20 c0 -5 -7 -10 -15 -10 -8 0
-15 5 -15 10 0 6 7 10 15 10 8 0 15 -4 15 -10z"/>
<path d="M2585 5410 c3 -5 8 -10 11 -10 2 0 4 5 4 10 0 6 -5 10 -11 10 -5 0
-7 -4 -4 -10z"/>
<path d="M2560 5032 c-22 -23 -30 -40 -30 -67 0 -74 51 -126 104 -105 83 31
71 175 -16 196 -22 5 -34 0 -58 -24z"/>
</g>
</svg>
